<svg xmlns="http://www.w3.org/2000/svg" version="1.1" xmlns:xlink="http://www.w3.org/1999/xlink" xmlns:svgjs="http://svgjs.dev/svgjs" width="2000" height="1999" viewBox="0 0 2000 1999"><g transform="matrix(1,0,0,1,-0.431486880466764,-0.4312711370263287)"><svg viewBox="0 0 343 343" data-background-color="#ffffff" preserveAspectRatio="xMidYMid meet" height="1999" width="2000" xmlns="http://www.w3.org/2000/svg" xmlns:xlink="http://www.w3.org/1999/xlink"><g id="tight-bounds" transform="matrix(1,0,0,1,0.0740000000000407,0.07400000000001228)"><svg viewBox="0 0 342.85155851775386 342.85155851775386" height="342.85155851775386" width="342.85155851775386"><g><svg></svg></g><g><svg viewBox="0 0 342.85155851775386 342.85155851775386" height="342.85155851775386" width="342.85155851775386"><g><path d="M0 171.426c0-94.676 76.75-171.426 171.426-171.426 94.676 0 171.426 76.75 171.426 171.426 0 94.676-76.75 171.426-171.426 171.426-94.676 0-171.426-76.75-171.426-171.426zM171.426 334.609c90.123 0 163.183-73.059 163.183-163.183 0-90.123-73.059-163.183-163.183-163.183-90.123 0-163.183 73.059-163.183 163.183 0 90.123 73.059 163.183 163.183 163.183z" data-fill-palette-color="tertiary" fill="#000000" stroke="transparent"></path><ellipse rx="164.56874808852186" ry="164.56874808852186" cx="171.42577925887693" cy="171.42577925887693" fill="#000000" stroke="transparent" stroke-width="0" fill-opacity="1" data-fill-palette-color="tertiary"></ellipse></g><g transform="matrix(1,0,0,1,64.84655864529837,125.72356619265388)"><svg viewBox="0 0 213.1584412271571 91.4044261324461" height="91.4044261324461" width="213.1584412271571"><g><svg viewBox="0 0 213.1584412271571 91.4044261324461" height="91.4044261324461" width="213.1584412271571"><g><svg viewBox="0 0 213.1584412271571 91.4044261324461" height="91.4044261324461" width="213.1584412271571"><g><svg viewBox="0 0 213.1584412271571 91.4044261324461" height="91.4044261324461" width="213.1584412271571"><g id="textblocktransform"><svg viewBox="0 0 213.1584412271571 91.4044261324461" height="91.4044261324461" width="213.1584412271571" id="textblock"><g><svg viewBox="0 0 213.1584412271571 91.4044261324461" height="91.4044261324461" width="213.1584412271571"><g transform="matrix(1,0,0,1,0,0)"><svg width="213.1584412271571" viewBox="0.6000000238418579 -37.5 89.9000015258789 38.54999923706055" height="91.4044261324461" data-palette-color="#ffffff"><path d="M6.95-34L6.95-34Q9.5-35.65 12.43-36.58 15.35-37.5 18.15-37.5L18.15-37.5Q18.5-37.5 18.93-37.48 19.35-37.45 20.15-37.4L20.15-37.4 16.95-22.5 24.3-22.5 27.5-37.4 34.7-37.4 26.75 0 19.55 0 23.55-18.8 16.2-18.8 12.2 0 5 0 12.25-34Q8.85-32.6 7.05-29.78 5.25-26.95 5.25-23.05L5.25-23.05Q5.25-22.1 5.38-21.4 5.5-20.7 5.8-20.05L5.8-20.05Q5.9-19.85 5.93-19.78 5.95-19.7 5.95-19.65L5.95-19.65Q3.15-19.65 1.88-20.83 0.6-22 0.6-24.5L0.6-24.5Q0.6-27 2.27-29.5 3.95-32 6.95-34ZM49.15-18.85L45.15 0 37.95 0 44.75-31.8 52.15-32.8 49.7-21.25 50.1-21.25Q52.95-21.25 55.07-24 57.2-26.75 57.2-29.95L57.2-29.95Q57.2-32.4 55.75-33.8 54.3-35.2 51.7-35.2L51.7-35.2Q45.5-35.2 41.85-31.93 38.2-28.65 38.2-23.05L38.2-23.05Q38.2-22.1 38.32-21.4 38.45-20.7 38.75-20.05L38.75-20.05Q38.85-19.85 38.87-19.78 38.9-19.7 38.9-19.65L38.9-19.65Q36.1-19.65 34.82-20.83 33.55-22 33.55-24.5L33.55-24.5Q33.55-27 35.22-29.5 36.9-32 39.9-34L39.9-34Q42.45-35.65 45.37-36.58 48.3-37.5 51.1-37.5L51.1-37.5Q56.35-37.5 59.4-35.3 62.45-33.1 62.45-29.5L62.45-29.5Q62.45-27.1 60.97-24.75 59.5-22.4 57.05-20.95L57.05-20.95Q58.8-20.45 59.65-19.23 60.5-18 60.5-15.95L60.5-15.95Q60.5-14.8 60.25-13.33 60-11.85 59.15-8.85L59.15-8.85Q58.45-6.3 58.25-5.2 58.05-4.1 58.05-3.3L58.05-3.3Q58.05-2.15 58.57-1.25 59.1-0.35 60 0L60 0Q58.55 0.4 57.27 0.63 56 0.85 55.05 0.85L55.05 0.85Q53.1 0.85 52.12 0.03 51.15-0.8 51.15-2.5L51.15-2.5Q51.15-3.35 51.4-4.58 51.65-5.8 52.4-8.65L52.4-8.65Q53.25-11.75 53.52-13.18 53.8-14.6 53.8-15.65L53.8-15.65Q53.8-17.35 53.05-18.2 52.3-19.05 50.8-19.05L50.8-19.05Q50.6-19.05 50.37-19.03 50.15-19 49.15-18.85L49.15-18.85ZM70.89-28.55L70.89-28.55Q70.89-32.4 74.22-34.95 77.55-37.5 82.45-37.5L82.45-37.5Q86.25-37.5 88.37-35.95 90.5-34.4 90.5-31.5L90.5-31.5Q90.5-29.25 89.37-27.85 88.25-26.45 86.4-26.45L86.4-26.45Q85.7-26.45 85.12-26.7 84.55-26.95 84.09-27.5L84.09-27.5Q85.09-28.1 85.72-29.3 86.34-30.5 86.34-31.8L86.34-31.8Q86.34-33.4 85.4-34.27 84.45-35.15 82.65-35.15L82.65-35.15Q80.5-35.15 79.27-33.95 78.05-32.75 78.05-30.6L78.05-30.6Q78.05-28.85 78.95-27.28 79.84-25.7 82.84-23.05L82.84-23.05Q86.8-19.6 88.05-17.07 89.3-14.55 89.3-11.45L89.3-11.45Q89.3-5.75 85.34-2.35 81.4 1.05 75.25 1.05L75.25 1.05Q70.34 1.05 67.5-1.2 64.64-3.45 64.64-7.55L64.64-7.55Q64.64-11.15 66.8-13.45 68.95-15.75 72-15.75L72-15.75Q73.9-15.75 75.09-14.88 76.3-14 76.4-12.45L76.4-12.45Q73.8-12.45 72.17-11.2 70.55-9.95 70.55-7.75L70.55-7.75Q70.55-5.65 71.84-4.3 73.15-2.95 75.34-2.95L75.34-2.95Q77.95-2.95 79.55-4.75 81.15-6.55 81.15-9.6L81.15-9.6Q81.15-11.95 80.09-14.1 79.05-16.25 75.75-19.85L75.75-19.85Q72.75-23.05 71.82-24.88 70.89-26.7 70.89-28.55Z" opacity="1" transform="matrix(1,0,0,1,0,0)" fill="#ffffff" class="wordmark-text-0" data-fill-palette-color="quaternary" id="text-0"></path></svg></g></svg></g></svg></g></svg></g><g></g></svg></g></svg></g></svg></g></svg></g><defs></defs></svg><rect width="342.85155851775386" height="342.85155851775386" fill="none" stroke="none" visibility="hidden"></rect></g></svg></g></svg>